<?xml version="1.0" encoding="UTF-8"?>
<svg id="Layer_1" xmlns="http://www.w3.org/2000/svg" version="1.1" viewBox="0 0 338 276">
  <!-- Generator: Adobe Illustrator 29.2.1, SVG Export Plug-In . SVG Version: 2.1.0 Build 116)  -->
  <defs>
    <style>
      .st0 {
        fill: #040404;
      }
    </style>
  </defs>
  <path class="st0" d="M165.84,7.14l6.11-.14c51.55,1.58,91.86,30.57,113.44,76.43,1.88,3.99,3.25,11.8,8.11,12.62,5.24.88,9.49-.13,15.14,1.86,14.01,4.94,16.83,17.89,17.32,31.18.67,18.04-.81,40.19-23.49,42.46-3.98.4-8.7-1.03-11.78,2.31-1.81,1.96-4.76,11.24-6.26,14.47-44.46,95.94-179.79,98.15-228.57,4.83-3-5.74-4.76-11.91-7.45-17.42-2.7-5.5-7.5-3.75-12.43-4.15-15.01-1.24-22.6-12.56-23.45-26.71-1.14-19.08-1.88-44.7,22.25-48.26,3-.44,6.68-.07,9.39-.56,4.17-.75,5.7-8.32,7.28-11.79C72.4,38.27,114.94,9.12,165.84,7.14ZM166.67,26.21c-85.82,2.34-138.27,98.09-87.55,169.8,47.94,67.77,151.73,61.65,187.48-14.32,33.19-70.53-17.08-153.25-94.67-155.6l-5.26.12Z"/>
  <path class="st0" d="M235.84,66.86c26.75,26.39,36.21,68.02,23.67,103.59-11.5,32.63-39.48,56.01-73.68,61.66l13.63-8.12c58.55-43.55,17.66-138.9-55.68-120.35-5.01,1.27-9.67,3.73-14.63,4.64-3.15-1.36,2.59-5.65,3.9-6.68,8.34-6.55,19.95-11.19,30.31-13.21,29.29-5.73,58.21,4.02,78.43,25.58-.52-1.35-1.5-2.91-2.31-4.11-13.25-19.63-37.93-32.18-61.73-31.12-36.71,1.62-78.49,32.45-75.66,72.33,1.45,20.45,17.63,37.38,38.77,35.88,5.58-.39,15.96-4.5,18.1-10.08,2.03-5.3-4.97-3.81-8.4-4.64-20-4.8-15.31-34.47,6.01-36.3,20.23-1.74,33.81,17.7,30.8,36.6-4.89,30.65-40.51,43.91-67.87,35.32-34.33-10.77-50.45-49.07-47.27-82.89,7.5-79.95,106.58-114.36,163.6-58.1Z"/>
  <path class="st0" d="M156.39,227.55l12.96-3.82c25.93-10.43,41.97-34.48,40.12-62.73-.16-2.46-.98-5.09-1.21-7.5-.04-.46-.38-1.49.36-1.39.31,2.15,1.37,4.05,1.96,6.13,10.21,35.92-17.45,70.1-54.19,69.31Z"/>
</svg>